<svg width="23" height="15" viewBox="0 0 23 15" fill="none" xmlns="http://www.w3.org/2000/svg">
<path fill-rule="evenodd" clip-rule="evenodd" d="M23 7.5C23 7.27902 22.9135 7.06709 22.7594 6.91083C22.6054 6.75457 22.3965 6.66678 22.1786 6.66678H2.80565L7.97539 1.42419C8.05176 1.34672 8.11234 1.25475 8.15366 1.15353C8.19499 1.05231 8.21627 0.943827 8.21627 0.834269C8.21627 0.724711 8.19499 0.616226 8.15366 0.515008C8.11234 0.41379 8.05176 0.321821 7.97539 0.244352C7.89902 0.166883 7.80836 0.105431 7.70858 0.063505C7.6088 0.0215791 7.50185 0 7.39385 0C7.28585 0 7.17891 0.0215791 7.07913 0.063505C6.97935 0.105431 6.88869 0.166883 6.81232 0.244352L0.24131 6.91008C0.164818 6.98748 0.10413 7.07943 0.0627223 7.18066C0.0213144 7.28188 0 7.3904 0 7.5C0 7.6096 0.0213144 7.71812 0.0627223 7.81934C0.10413 7.92057 0.164818 8.01252 0.24131 8.08992L6.81232 14.7556C6.88869 14.8331 6.97935 14.8946 7.07913 14.9365C7.17891 14.9784 7.28585 15 7.39385 15C7.50185 15 7.6088 14.9784 7.70858 14.9365C7.80836 14.8946 7.89902 14.8331 7.97539 14.7556C8.05176 14.6782 8.11234 14.5862 8.15366 14.485C8.19499 14.3838 8.21627 14.2753 8.21627 14.1657C8.21627 14.0562 8.19499 13.9477 8.15366 13.8465C8.11234 13.7453 8.05176 13.6533 7.97539 13.5758L2.80565 8.33322H22.1786C22.3965 8.33322 22.6054 8.24543 22.7594 8.08917C22.9135 7.93292 23 7.72098 23 7.5Z" fill="black"/>
</svg>
