<svg width="15" height="15" viewBox="0 0 15 15" fill="none" xmlns="http://www.w3.org/2000/svg">
<path fill-rule="evenodd" clip-rule="evenodd" d="M13.9965 1.00345C14.1196 1.12653 14.1887 1.29345 14.1887 1.46749C14.1887 1.64154 14.1196 1.80846 13.9965 1.93153L3.0517 12.8764L8.89209 12.8754C9.06636 12.8754 9.23349 12.9447 9.35671 13.0679C9.47994 13.1911 9.54917 13.3582 9.54917 13.5325C9.54917 13.7068 9.47994 13.8739 9.35671 13.9971C9.23349 14.1204 9.06636 14.1896 8.89209 14.1896L1.46747 14.1896C1.38115 14.1897 1.29565 14.1728 1.21589 14.1398C1.13611 14.1068 1.06364 14.0584 1.0026 13.9974C0.941562 13.9363 0.893166 13.8639 0.860184 13.7841C0.827201 13.7043 0.810279 13.6188 0.810389 13.5325L0.810388 6.10788C0.810388 5.93361 0.879617 5.76648 1.00284 5.64326C1.12607 5.52003 1.2932 5.4508 1.46747 5.4508C1.64174 5.4508 1.80887 5.52003 1.93209 5.64326C2.05532 5.76648 2.12455 5.93361 2.12455 6.10788L2.12362 11.9483L13.0684 1.00345C13.1915 0.880384 13.3584 0.811244 13.5325 0.811244C13.7065 0.811243 13.8734 0.880384 13.9965 1.00345Z" fill="black"/>
</svg>
