<svg width="17" height="17" viewBox="0 0 17 17" fill="none" xmlns="http://www.w3.org/2000/svg">
<g clip-path="url(#clip0_190_2865)">
<path fill-rule="evenodd" clip-rule="evenodd" d="M1.06247 12.2187C1.06247 12.3596 1.11844 12.4948 1.21807 12.5944C1.3177 12.694 1.45283 12.75 1.59372 12.75H14.1238L10.7801 16.0926C10.6803 16.1924 10.6243 16.3277 10.6243 16.4688C10.6243 16.6098 10.6803 16.7451 10.7801 16.8449C10.8799 16.9446 11.0151 17.0007 11.1562 17.0007C11.2973 17.0007 11.4326 16.9446 11.5323 16.8449L15.7823 12.5949C15.8318 12.5455 15.8711 12.4869 15.8979 12.4224C15.9246 12.3578 15.9384 12.2886 15.9384 12.2187C15.9384 12.1489 15.9246 12.0797 15.8979 12.0151C15.8711 11.9506 15.8318 11.892 15.7823 11.8426L11.5323 7.59262C11.4326 7.49287 11.2973 7.43683 11.1562 7.43683C11.0151 7.43683 10.8799 7.49287 10.7801 7.59262C10.6803 7.69238 10.6243 7.82768 10.6243 7.96875C10.6243 8.10982 10.6803 8.24512 10.7801 8.34488L14.1238 11.6875H1.59372C1.45283 11.6875 1.3177 11.7435 1.21807 11.8431C1.11844 11.9427 1.06247 12.0779 1.06247 12.2187ZM15.9375 4.78125C15.9375 4.92215 15.8815 5.05727 15.7819 5.1569C15.6822 5.25653 15.5471 5.3125 15.4062 5.3125H2.87616L6.21985 8.65512C6.26924 8.70452 6.30842 8.76316 6.33515 8.82769C6.36189 8.89223 6.37564 8.9614 6.37564 9.03125C6.37564 9.1011 6.36189 9.17027 6.33515 9.23481C6.30842 9.29934 6.26924 9.35798 6.21985 9.40737C6.17045 9.45677 6.11182 9.49595 6.04728 9.52268C5.98274 9.54941 5.91358 9.56317 5.84372 9.56317C5.77387 9.56317 5.7047 9.54941 5.64017 9.52268C5.57563 9.49595 5.51699 9.45677 5.4676 9.40737L1.2176 5.15737C1.16812 5.10803 1.12887 5.0494 1.10209 4.98486C1.07531 4.92032 1.06152 4.85113 1.06152 4.78125C1.06152 4.71137 1.07531 4.64218 1.10209 4.57764C1.12887 4.5131 1.16812 4.45447 1.2176 4.40512L5.4676 0.155125C5.56735 0.0553701 5.70265 -0.000671387 5.84372 -0.000671387C5.9848 -0.000671387 6.12009 0.0553701 6.21985 0.155125C6.3196 0.254879 6.37564 0.390175 6.37564 0.53125C6.37564 0.672324 6.3196 0.80762 6.21985 0.907375L2.87616 4.25H15.4062C15.5471 4.25 15.6822 4.30597 15.7819 4.4056C15.8815 4.50523 15.9375 4.64035 15.9375 4.78125Z" fill="black"/>
</g>
<defs>
<clipPath id="clip0_190_2865">
<rect width="17" height="17" fill="white"/>
</clipPath>
</defs>
</svg>
