<svg width="16" height="16" viewBox="0 0 16 16" fill="none" xmlns="http://www.w3.org/2000/svg">
<path fill-rule="evenodd" clip-rule="evenodd" d="M1.19358 14.8057C1.32251 14.9347 1.49738 15.0071 1.67972 15.0071C1.86205 15.0071 2.03692 14.9347 2.16585 14.8057L13.6319 3.33972L13.6309 9.45823C13.6309 9.6408 13.7034 9.81588 13.8325 9.94498C13.9616 10.0741 14.1367 10.1466 14.3193 10.1466C14.5018 10.1466 14.6769 10.0741 14.806 9.94498C14.9351 9.81588 15.0076 9.6408 15.0076 9.45823L15.0076 1.68005C15.0077 1.58962 14.99 1.50006 14.9555 1.41649C14.9209 1.33292 14.8702 1.25699 14.8063 1.19305C14.7423 1.1291 14.6664 1.0784 14.5828 1.04385C14.4992 1.0093 14.4097 0.991571 14.3193 0.991685L6.54108 0.991685C6.45068 0.991685 6.36117 1.00949 6.27765 1.04408C6.19413 1.07868 6.11825 1.12938 6.05433 1.1933C5.92523 1.3224 5.85271 1.49749 5.85271 1.68005C5.85271 1.86262 5.92523 2.03771 6.05433 2.1668C6.18342 2.2959 6.35851 2.36842 6.54108 2.36842L12.6596 2.36745L1.19358 13.8335C1.06465 13.9624 0.992219 14.1373 0.992217 14.3196C0.992218 14.5019 1.06465 14.6768 1.19358 14.8057Z" fill="black"/>
</svg>
