<svg width="20" height="27" viewBox="0 0 20 27" fill="none" xmlns="http://www.w3.org/2000/svg">
<path d="M5.34378 23.8125V26.3906C5.34378 26.6752 5.57478 26.9062 5.8594 26.9062H7.9219C8.05865 26.9062 8.1898 26.8519 8.2865 26.7552C8.3832 26.6585 8.43753 26.5274 8.43753 26.3906V23.8125H9.46878V26.3906C9.46878 26.6752 9.69978 26.9062 9.9844 26.9062H12.0469C12.1837 26.9062 12.3148 26.8519 12.4115 26.7552C12.5082 26.6585 12.5625 26.5274 12.5625 26.3906V23.8125H12.7358C16.8443 23.8125 19.7813 21.6819 19.7813 17.9963C19.7813 14.8984 17.7043 13.2051 15.2727 12.9637V12.7822C17.2733 12.2831 18.7438 10.7734 18.7438 8.26538C18.7438 5.10562 16.372 3.1875 12.7523 3.1875H12.5625V0.609375C12.5625 0.472623 12.5082 0.341472 12.4115 0.244773C12.3148 0.148075 12.1837 0.09375 12.0469 0.09375H9.9844C9.84765 0.09375 9.7165 0.148075 9.6198 0.244773C9.5231 0.341472 9.46878 0.472623 9.46878 0.609375V3.1875H8.28696V0.609375C8.28696 0.472623 8.23264 0.341472 8.13594 0.244773C8.03924 0.148075 7.90809 0.09375 7.77134 0.09375H5.8594C5.72265 0.09375 5.5915 0.148075 5.4948 0.244773C5.3981 0.341472 5.34378 0.472623 5.34378 0.609375V3.1875L1.2229 3.21019C1.08615 3.21019 0.954997 3.26451 0.858298 3.36121C0.7616 3.45791 0.707275 3.58906 0.707275 3.72581V5.76562C0.707275 6.04819 0.93415 6.28125 1.21878 6.28125L2.77596 6.27094C3.18443 6.27366 3.57524 6.43784 3.86311 6.72764C4.15098 7.01744 4.31253 7.40934 4.31253 7.81781V19.1719C4.31253 19.5821 4.14955 19.9756 3.85946 20.2657C3.56936 20.5558 3.17591 20.7188 2.76565 20.7188L1.2229 20.7414C1.08615 20.7414 0.954997 20.7958 0.858298 20.8925C0.7616 20.9892 0.707275 21.1203 0.707275 21.2571V23.3196C0.707275 23.6042 0.938275 23.8352 1.2229 23.8352L5.34378 23.8125ZM8.28696 6.25444H11.8324C13.701 6.25444 14.7983 7.28156 14.7983 8.96044C14.7983 10.7569 13.6123 11.7696 10.927 11.7696H8.28696V6.25444ZM8.28696 14.6096H12.082C14.427 14.6096 15.7037 15.8059 15.7037 17.7529C15.7037 19.7184 14.4126 20.7435 11.2528 20.7435H8.28696V14.6096Z" fill="#FACE2B"/>
</svg>
