<svg width="12" height="20" viewBox="0 0 12 20" fill="none" xmlns="http://www.w3.org/2000/svg">
<path d="M0.5 13.8239C0.7035 16.116 2.58037 17.7426 5.43762 17.953V19.625H6.87175V17.953C9.993 17.7069 11.929 15.9757 11.929 13.4155C11.929 11.2292 10.6269 9.96425 7.8645 9.252L6.87175 8.99487V3.76713C8.4145 3.91838 9.45538 4.74888 9.718 5.98913H11.7393C11.511 3.78913 9.62175 2.21062 6.87175 2.036V0.375H5.43762V2.07038C2.7715 2.38663 0.941375 4.09437 0.941375 6.40987C0.941375 8.40913 2.26962 9.824 4.60025 10.4207L5.439 10.6435V16.1861C3.85912 15.9524 2.7715 15.0861 2.50887 13.8239H0.5ZM5.16262 8.54938C3.7285 8.18775 2.96262 7.415 2.96262 6.32737C2.96262 5.02938 3.93063 4.071 5.43762 3.81387V8.6195L5.16262 8.54938ZM7.35025 11.1234C9.11987 11.5675 9.89675 12.3045 9.89675 13.5558C9.89675 15.0641 8.761 16.0692 6.87175 16.2219V11.0037L7.35025 11.122V11.1234Z" fill="black"/>
</svg>
