<svg width="26" height="27" viewBox="0 0 26 27" fill="none" xmlns="http://www.w3.org/2000/svg">
<path d="M26 19.3735C26 24.1055 23.179 26.9265 18.447 26.9265H16.9C16.185 26.9265 15.6 26.3415 15.6 25.6265V18.1255C15.6 17.7745 15.886 17.4755 16.237 17.4755L18.525 17.4365C18.707 17.4235 18.863 17.2935 18.902 17.1115L19.357 14.6285C19.396 14.3945 19.214 14.1735 18.967 14.1735L16.198 14.2125C15.834 14.2125 15.548 13.9265 15.535 13.5755L15.483 10.3905C15.483 10.1825 15.652 10.0005 15.873 10.0005L18.993 9.94851C19.214 9.94851 19.383 9.77953 19.383 9.55853L19.331 6.4385C19.331 6.2175 19.162 6.04851 18.941 6.04851L15.431 6.10053C13.273 6.13953 11.557 7.90751 11.596 10.0655L11.661 13.6405C11.674 14.0045 11.388 14.2905 11.024 14.3035L9.464 14.3295C9.243 14.3295 9.07401 14.4985 9.07401 14.7195L9.11301 17.1895C9.11301 17.4105 9.282 17.5795 9.503 17.5795L11.063 17.5535C11.427 17.5535 11.713 17.8395 11.726 18.1905L11.843 25.6005C11.856 26.3285 11.271 26.9265 10.543 26.9265H7.553C2.821 26.9265 0 24.1055 0 19.3605V8.47951C0 3.74751 2.821 0.926514 7.553 0.926514H18.447C23.179 0.926514 26 3.74751 26 8.47951V19.3735Z" fill="#FFE150" fill-opacity="0.8"/>
</svg>
