<svg width="26" height="27" viewBox="0 0 26 27" fill="none" xmlns="http://www.w3.org/2000/svg">
<path d="M18.4499 0.926514H7.55593C2.82393 0.926514 0.00292969 3.74751 0.00292969 8.47951V19.3605C0.00292969 24.1055 2.82393 26.9265 7.55593 26.9265H18.4369C23.1689 26.9265 25.9899 24.1055 25.9899 19.3735V8.47951C26.0029 3.74751 23.1819 0.926514 18.4499 0.926514ZM13.0029 18.9705C10.2209 18.9705 7.95893 16.7085 7.95893 13.9265C7.95893 11.1445 10.2209 8.88251 13.0029 8.88251C15.7849 8.88251 18.0469 11.1445 18.0469 13.9265C18.0469 16.7085 15.7849 18.9705 13.0029 18.9705ZM20.6989 7.27051C20.6339 7.42651 20.5429 7.56951 20.4259 7.69951C20.2959 7.81651 20.1529 7.90751 19.9969 7.97251C19.8409 8.03751 19.6719 8.07651 19.5029 8.07651C19.1519 8.07651 18.8269 7.94651 18.5799 7.69951C18.4629 7.56951 18.3719 7.42651 18.3069 7.27051C18.2419 7.11451 18.2029 6.94551 18.2029 6.77651C18.2029 6.60751 18.2419 6.43851 18.3069 6.28251C18.3719 6.11351 18.4629 5.98351 18.5799 5.85351C18.8789 5.55451 19.3339 5.41151 19.7499 5.50251C19.8409 5.51551 19.9189 5.54151 19.9969 5.58051C20.0749 5.60651 20.1529 5.64551 20.2309 5.69751C20.2959 5.73651 20.3609 5.80151 20.4259 5.85351C20.5429 5.98351 20.6339 6.11351 20.6989 6.28251C20.7639 6.43851 20.8029 6.60751 20.8029 6.77651C20.8029 6.94551 20.7639 7.11451 20.6989 7.27051Z" fill="#FFE150" fill-opacity="0.8"/>
</svg>
