<svg width="27" height="27" viewBox="0 0 27 27" fill="none" xmlns="http://www.w3.org/2000/svg">
<path fill-rule="evenodd" clip-rule="evenodd" d="M13.99 0.926514C6.81399 0.926514 0.98999 6.75051 0.98999 13.9265C0.98999 21.1025 6.81399 26.9265 13.99 26.9265C21.166 26.9265 26.99 21.1025 26.99 13.9265C26.99 6.75051 21.166 0.926514 13.99 0.926514ZM20.893 18.2295C20.516 18.4375 20.204 18.5285 19.944 18.5935C19.723 18.6455 19.541 18.6975 19.385 18.8015C19.216 18.9055 19.203 19.0745 19.177 19.2305C19.151 19.3735 19.138 19.4905 19.034 19.5685C18.917 19.6465 18.696 19.6595 18.397 19.6725C18.007 19.6985 17.513 19.7115 16.915 19.8935C16.629 19.9975 16.369 20.1535 16.109 20.3095C15.589 20.6345 15.004 20.9855 13.977 20.9855C12.963 20.9855 12.378 20.6345 11.858 20.3095C11.598 20.1405 11.338 19.9845 11.039 19.8805C10.454 19.6985 9.94699 19.6725 9.55699 19.6595C9.25799 19.6465 9.05 19.6335 8.92 19.5555C8.816 19.4905 8.80298 19.3605 8.77698 19.2175C8.75098 19.0615 8.73798 18.8925 8.56898 18.7885C8.41298 18.6845 8.21798 18.6325 8.00998 18.5675C7.74998 18.5025 7.438 18.4245 7.061 18.2165C6.619 17.9695 6.879 17.8265 7.022 17.7485C9.531 16.5395 9.92099 14.6675 9.93399 14.5245C9.93399 14.5115 9.93399 14.5115 9.93399 14.4985C9.95999 14.3425 9.97298 14.2125 9.79098 14.0435C9.67398 13.9265 9.27099 13.6665 8.94599 13.4585C8.80298 13.3545 8.673 13.2765 8.595 13.2375C8.231 12.9775 8.075 12.7305 8.192 12.4055C8.27 12.1845 8.478 12.1065 8.686 12.1065C8.751 12.1065 8.829 12.1195 8.881 12.1325C9.115 12.1845 9.34899 12.2755 9.55699 12.3535C9.69999 12.4185 9.81698 12.4575 9.90798 12.4835C9.93398 12.4965 9.973 12.4965 9.986 12.4965C10.116 12.4965 10.155 12.4315 10.142 12.3015C10.142 12.2625 10.142 12.2235 10.129 12.1845C10.103 11.7295 10.064 10.9365 10.116 10.2085C10.22 9.11653 10.571 8.55753 10.987 8.08953C11.195 7.85553 12.144 6.85451 13.951 6.85451C15.771 6.85451 16.707 7.85551 16.915 8.07651C17.331 8.55751 17.682 9.10353 17.786 10.2085C17.851 10.9755 17.799 11.7945 17.76 12.2495V12.2885C17.747 12.4315 17.786 12.4835 17.916 12.4835C17.942 12.4835 17.968 12.4835 17.994 12.4705C18.085 12.4445 18.202 12.4055 18.345 12.3535C18.54 12.2755 18.774 12.1845 19.021 12.1325C19.086 12.1065 19.151 12.1065 19.216 12.1065C19.437 12.1065 19.632 12.1975 19.71 12.4185C19.827 12.7305 19.671 12.9775 19.307 13.2375C19.242 13.2895 19.112 13.3805 18.956 13.4585C18.644 13.6665 18.228 13.9265 18.111 14.0435C17.929 14.2125 17.942 14.3425 17.968 14.4985V14.5245C17.994 14.6675 18.384 16.5395 20.88 17.7485C21.075 17.8265 21.335 17.9825 20.893 18.2295Z" fill="#FFE150" fill-opacity="0.8"/>
</svg>
