<svg width="483" height="176" viewBox="0 0 483 176" fill="none" xmlns="http://www.w3.org/2000/svg">
<path d="M1 84.8843L5.32468 97.8264L8.68831 96.3884L12.0519 89.1983L14.4545 93.9917L17.8182 89.1983L20.2208 96.3884L26.4675 89.1983L30.3117 93.9917L32.7143 124.669L36.5584 121.793L38.4805 93.9917L42.8052 100.702L49.5325 89.1983L56.2597 96.3884L66.8312 34.5537L73.0779 44.1405L76.9221 1L88.4545 51.3306L92.2987 45.5785L97.1039 18.2562L100.468 28.8017L102.39 54.2066L105.753 49.4132L108.156 56.124L111.039 51.3306L113.922 61.3967L117.766 52.7686V59.9587L122.571 54.2066L126.416 51.3306L129.779 45.5785L132.182 47.9752L134.584 42.7025L138.429 45.5785L141.792 42.7025L144.675 45.5785L147.558 42.7025H149.961L153.325 38.8678L154.766 28.8017L158.61 37.9091L161.494 34.5537L164.857 42.7025H167.26L172.065 51.3306L175.429 44.1405L178.792 49.4132L181.675 41.7438L183.597 45.5785L187.442 30.719L193.208 42.7025L196.571 38.8678L198.494 42.7025L203.299 38.8678L204.74 32.6364L207.623 37.9091L210.987 35.9917L213.39 24.4876L216.273 30.719L219.156 25.4463L221.558 41.7438L228.286 47.9752L230.688 93.9917L235.974 81.5289H239.338L242.701 62.8347L245.584 69.5455H247.987L250.87 100.702L256.636 116.521L260.481 103.099H263.364L266.727 89.1983L271.532 96.3884L274.416 135.694L277.779 128.504H280.662L284.026 112.686L289.792 107.893V103.099L291.714 100.702L292.675 96.3884L296.039 95.4298L297.481 89.1983L301.325 102.14L306.61 100.702L309.974 97.3471L313.338 100.702L315.74 99.7438L317.662 114.603L322.468 107.893L323.909 134.736L327.753 129.942L330.636 116.521L333.519 125.628L335.442 112.686L339.286 108.851L341.688 116.521L344.571 114.603L353.221 99.7438L356.584 100.702L359.948 97.3471L362.351 112.686L364.753 92.0744L369.078 102.14L373.883 105.017L376.286 116.521L379.649 106.934L382.052 119.876L385.896 120.835L388.779 117.959L391.662 121.793L394.065 116.521L402.714 129.942L409.922 119.876L414.727 117.959L418.091 123.711L422.896 141.446L427.701 175L433.948 147.198L437.792 154.388L441.636 147.198L444.519 162.058L452.688 149.116L455.091 134.736L457.974 137.612L460.857 131.86L466.623 138.57L469.987 128.504L471.909 134.736L482 138.57" stroke="#9071E0" stroke-width="2" stroke-linecap="round" stroke-linejoin="round"/>
</svg>
