<svg width="27" height="27" viewBox="0 0 27 27" fill="none" xmlns="http://www.w3.org/2000/svg">
<path d="M25.9815 13.1598C25.5395 5.61999 18.6886 -0.190879 10.7978 1.1091C5.36389 2.00608 1.00898 6.41296 0.163995 11.8468C-0.329995 14.9928 0.320018 17.9697 1.73699 20.4266L0.579999 24.7296C0.320005 25.7045 1.21696 26.5885 2.17894 26.3155L6.41687 25.1455C8.34083 26.2765 10.5898 26.9265 12.9948 26.9265C20.3266 26.9265 26.4105 20.4656 25.9815 13.1598ZM19.3516 18.7627C19.2346 18.9967 19.0916 19.2177 18.9096 19.4257C18.5846 19.7767 18.2336 20.0367 17.8437 20.1926C17.4537 20.3616 17.0247 20.4396 16.5697 20.4396C15.9067 20.4396 15.1917 20.2838 14.4507 19.9588C13.6967 19.6338 12.9558 19.2047 12.2148 18.6717C11.4608 18.1257 10.7588 17.5147 10.0828 16.8517C9.40682 16.1757 8.8088 15.4607 8.26281 14.7198C7.72982 13.9788 7.30085 13.2378 6.98886 12.4968C6.67686 11.7558 6.52089 11.0409 6.52089 10.3649C6.52089 9.92291 6.59888 9.49391 6.75488 9.10392C6.91087 8.70093 7.15789 8.33695 7.50889 8.01196C7.92488 7.59596 8.37984 7.40097 8.86083 7.40097C9.04282 7.40097 9.22479 7.43995 9.39378 7.51795C9.56278 7.59595 9.7188 7.71295 9.83581 7.88195L11.3438 10.0139C11.4608 10.1829 11.5518 10.3259 11.6038 10.4689C11.6688 10.6119 11.6948 10.7419 11.6948 10.8719C11.6948 11.0279 11.6428 11.1839 11.5518 11.3398C11.4608 11.4958 11.3438 11.6518 11.1878 11.8078L10.6938 12.3278C10.6158 12.4058 10.5898 12.4838 10.5898 12.5878C10.5898 12.6398 10.6028 12.6918 10.6158 12.7438C10.6418 12.7958 10.6548 12.8348 10.6678 12.8738C10.7848 13.0948 10.9928 13.3678 11.2788 13.7058C11.5778 14.0438 11.8898 14.3948 12.2278 14.7328C12.5788 15.0838 12.9168 15.3957 13.2677 15.6947C13.6057 15.9807 13.8917 16.1757 14.1127 16.2927C14.1517 16.3057 14.1907 16.3317 14.2297 16.3447C14.2817 16.3707 14.3337 16.3707 14.3987 16.3707C14.5157 16.3707 14.5937 16.3317 14.6717 16.2537L15.1657 15.7597C15.3347 15.5907 15.4907 15.4737 15.6337 15.3957C15.7897 15.3047 15.9327 15.2527 16.1017 15.2527C16.2317 15.2527 16.3617 15.2787 16.5047 15.3437C16.6477 15.4087 16.8037 15.4867 16.9597 15.6037L19.1176 17.1377C19.2866 17.2547 19.4036 17.3977 19.4816 17.5537C19.5466 17.7227 19.5856 17.8787 19.5856 18.0607C19.5076 18.2817 19.4556 18.5287 19.3516 18.7627Z" fill="#FFE150" fill-opacity="0.8"/>
</svg>
